<svg width="32" height="32" viewBox="0 0 32 32" fill="none" xmlns="http://www.w3.org/2000/svg">
<path d="M0 8C0 3.58172 3.58172 0 8 0H24C28.4183 0 32 3.58172 32 8V24C32 28.4183 28.4183 32 24 32H8C3.58172 32 0 28.4183 0 24V8Z" fill="white"/>
<path d="M17 13H21.5L21 15H17V24H15V15H11V13H15V11.128C15 9.345 15.186 8.698 15.534 8.046C15.8753 7.40199 16.402 6.87526 17.046 6.534C17.698 6.186 18.345 6 20.128 6C20.6507 6 21.108 6.05 21.5 6.15V8H20.128C18.804 8 18.401 8.078 17.989 8.298C17.6933 8.45251 17.4521 8.69405 17.298 8.99C17.078 9.401 17 9.804 17 11.128V13Z" fill="black"/>
</svg>
