<svg width="32" height="32" viewBox="0 0 32 32" fill="none" xmlns="http://www.w3.org/2000/svg">
<path d="M0 8C0 3.58172 3.58172 0 8 0H24C28.4183 0 32 3.58172 32 8V24C32 28.4183 28.4183 32 24 32H8C3.58172 32 0 28.4183 0 24V8Z" fill="white"/>
<path d="M6.5 16C6.5 11.522 6.5 9.282 7.891 7.891C9.282 6.5 11.521 6.5 16 6.5C20.478 6.5 22.718 6.5 24.109 7.891C25.5 9.282 25.5 11.521 25.5 16C25.5 20.478 25.5 22.718 24.109 24.109C22.718 25.5 20.479 25.5 16 25.5C11.522 25.5 9.282 25.5 7.891 24.109C6.5 22.718 6.5 20.479 6.5 16Z" stroke="black" stroke-width="1.5" stroke-linecap="round" stroke-linejoin="round"/>
<path d="M21.508 10.5H21.498M20.5 16C20.5 17.1935 20.0259 18.3381 19.182 19.182C18.3381 20.0259 17.1935 20.5 16 20.5C14.8065 20.5 13.6619 20.0259 12.818 19.182C11.9741 18.3381 11.5 17.1935 11.5 16C11.5 14.8065 11.9741 13.6619 12.818 12.818C13.6619 11.9741 14.8065 11.5 16 11.5C17.1935 11.5 18.3381 11.9741 19.182 12.818C20.0259 13.6619 20.5 14.8065 20.5 16Z" stroke="black" stroke-width="1.5" stroke-linecap="round" stroke-linejoin="round"/>
</svg>
