<svg width="32" height="32" viewBox="0 0 32 32" fill="none" xmlns="http://www.w3.org/2000/svg">
<path d="M0 8C0 3.58172 3.58172 0 8 0H24C28.4183 0 32 3.58172 32 8V24C32 28.4183 28.4183 32 24 32H8C3.58172 32 0 28.4183 0 24V8Z" fill="white"/>
<path d="M18 16L14.5 18V14L18 16Z" fill="black" stroke="black" stroke-width="1.5" stroke-linecap="round" stroke-linejoin="round"/>
<path d="M6 16.7084V15.2924C6 12.3974 6 10.9494 6.905 10.0184C7.811 9.08639 9.237 9.04639 12.088 8.96539C13.438 8.92739 14.818 8.90039 16 8.90039C17.182 8.90039 18.561 8.92739 19.912 8.96539C22.763 9.04639 24.189 9.08639 25.094 10.0184C25.999 10.9504 26 12.3984 26 15.2924V16.7074C26 19.6034 26 21.0504 25.095 21.9824C24.189 22.9134 22.764 22.9544 19.912 23.0344C18.562 23.0734 17.182 23.1004 16 23.1004C14.818 23.1004 13.439 23.0734 12.088 23.0344C9.237 22.9544 7.811 22.9144 6.905 21.9824C5.999 21.0504 6 19.6024 6 16.7084Z" stroke="black" stroke-width="1.5"/>
</svg>
